<?xml version="1.0" encoding="UTF-8"?>
<!DOCTYPE svg PUBLIC "-//W3C//DTD SVG 1.1//EN" "http://www.w3.org/Graphics/SVG/1.1/DTD/svg11.dtd">
<!-- Creator: CorelDRAW -->
<svg xmlns="http://www.w3.org/2000/svg" xml:space="preserve" width="8.4665mm" height="8.4666mm" version="1.1" style="shape-rendering:geometricPrecision; text-rendering:geometricPrecision; image-rendering:optimizeQuality; fill-rule:evenodd; clip-rule:evenodd"
viewBox="0 0 839.11 839.12"
 xmlns:xlink="http://www.w3.org/1999/xlink"
 xmlns:xodm="http://www.corel.com/coreldraw/odm/2003">
 <defs>
  <style type="text/css">
   <![CDATA[
    .str0 {stroke:black;stroke-width:26.22;stroke-linecap:round;stroke-linejoin:round;stroke-miterlimit:22.9256}
    .fil1 {fill:none}
    .fil0 {fill:white;fill-rule:nonzero}
   ]]>
  </style>
 </defs>
 <g id="Camada_x0020_1">
  <metadata id="CorelCorpID_0Corel-Layer"/>
  <path class="fil0" d="M419.56 0l0 0c231.67,0.01 419.55,187.89 419.55,419.55l0 0.01c0,231.66 -187.88,419.54 -419.54,419.54l-0.01 0.02c-231.67,-0.02 -419.55,-187.9 -419.55,-419.57l-0.01 0.01c0.01,-231.67 187.89,-419.55 419.57,-419.55z"/>
  <g id="_2626500830288">
   <path class="fil1 str0" d="M419.56 517.89c54.3,0 98.33,-44.02 98.33,-98.34 0,-54.29 -44.02,-98.33 -98.33,-98.33 -54.3,0 -98.33,44.03 -98.33,98.33 0,54.31 44.02,98.34 98.33,98.34z"/>
   <line class="fil1 str0" x1="419.56" y1="268.78" x2="419.56" y2= "236.01" />
   <line class="fil1 str0" x1="312.87" y1="312.87" x2="289.77" y2= "289.77" />
   <line class="fil1 str0" x1="268.78" y1="419.55" x2="236.01" y2= "419.55" />
   <line class="fil1 str0" x1="312.87" y1="526.25" x2="289.77" y2= "549.35" />
   <line class="fil1 str0" x1="419.56" y1="570.33" x2="419.56" y2= "603.11" />
   <line class="fil1 str0" x1="526.25" y1="526.25" x2="549.35" y2= "549.35" />
   <line class="fil1 str0" x1="570.33" y1="419.55" x2="603.11" y2= "419.55" />
   <line class="fil1 str0" x1="526.25" y1="312.87" x2="549.35" y2= "289.77" />
  </g>
 </g>
</svg>
